<svg width="36" height="40" viewBox="0 0 36 40" fill="none" xmlns="http://www.w3.org/2000/svg">
<path d="M35.2467 2.75723V0H8.37123C3.18525 0 0.626771 5.8728 3.91539 9.16141L4.04128 9.32182L9.23594 16.1479C11.0389 18.0066 10.1024 19.6262 8.72066 20.7879L0 28.1198V31.7629L11.865 21.5004C13.4676 19.8978 13.8757 17.3922 12.6315 16.1479L6.48994 7.70631C4.99686 6.03206 5.77326 2.75723 8.72066 2.75723H35.2467Z" fill="#FF6333"/>
<path d="M35.2467 3.6929H9.68649C7.6204 3.6929 6.43338 6.04372 7.65997 7.70631L14.2042 16.1479C15.396 17.3397 15.3589 19.7444 13.8757 21.2275L0 34.2422V39.8654L17.264 22.8067C19.3306 20.7646 19.4823 17.4777 17.6124 15.2541L11.5633 8.06052C11.0406 7.43892 11.4825 6.48994 12.2946 6.48994H35.2467V3.6929Z" fill="#FF6333"/>
</svg>
